<svg xmlns="http://www.w3.org/2000/svg" xml:space="preserve" width="1500" height="108" data-id="lg_VdTuN6SSu7eLvmfM5e" data-version="1" viewBox="0 0 1500 108"><g data-padding="20"><g transform="translate(10 1.925)scale(.96435)"><rect width="464.441" height="108.106" x="254.616" y="-54.453" fill="none" rx="0" ry="0" transform="translate(328.94 54.4)"/><path d="M598.527 83.56h-7.85V33.11h7.38v8.64q1.77-3.93 5.88-6.85t9.77-2.92q5 0 8.71 2.74 3.71 2.73 5.53 7.73 2.39-4.63 6.52-7.55 4.14-2.92 9.65-2.92 7.24 0 11.47 5.26 4.22 5.26 4.22 14.55v31.77h-7.84V52.4q0-4.3-.89-7.41-.89-3.1-2.92-4.78-2.03-1.69-5.54-1.69-3.83 0-6.89 2.18-3.06 2.17-4.81 6.33-1.75 4.15-1.75 10.13v26.4h-7.85V52.4q0-4.3-.89-7.41-.88-3.1-2.89-4.78-2.01-1.69-5.47-1.69-3.83 0-6.91 2.15t-4.86 6.31q-1.77 4.16-1.77 10.18Zm87.31 1.12q-5.05 0-8.76-1.94t-5.72-5.3q-2.01-3.37-2.01-7.62 0-4.53 2.66-8.36 2.67-3.83 8.25-6.14t14.32-2.31h8.4l-.84.84v-2.76q0-6.07-2.43-9.32t-8.12-3.25q-5.38 0-8.27 2.78-2.9 2.78-3.09 7.45l-8.82-2q.42-4.07 3.1-7.41 2.69-3.34 7.2-5.35 4.5-2.01 10.44-2.01 6.12 0 9.97 2.32 3.85 2.31 5.68 6.65 1.82 4.35 1.82 10.47v23.03q0 1.54.44 2.05.44.52 1.89.52h2.85v6.54h-5q-3.17 0-5.32-1.99-2.15-1.98-2.15-5.02V73h1.17q-.75 1.96-2.15 3.99-1.4 2.04-3.55 3.79t-5.12 2.82q-2.96 1.08-6.84 1.08m1.77-6.54q3.88 0 7.2-1.92 3.32-1.91 5.35-6t2.03-10.63v-.42h-7.9q-6.21 0-9.78 1.64-3.58 1.63-5.07 4.04-1.49 2.4-1.49 4.79 0 2.38 1.07 4.29 1.07 1.92 3.22 3.06 2.15 1.15 5.37 1.15m44.64 5.42h-7.84V33.11h7.38V43.8l-.28-1.21q2.24-5.23 6.75-7.92 4.5-2.69 9.13-2.69 1.35 0 2.64.24 1.28.23 2.4.79l-1.02 7.38q-2.57-.79-5.1-.79-1.58 0-3.94.63t-4.67 2.52q-2.32 1.89-3.88 5.63-1.57 3.74-1.57 9.95Zm37.21 0h-7.85V13.49h7.85v42.18l23.68-22.56h10.7l-20.84 19.15 21.26 31.3h-9.3l-17.66-26.07-7.84 7.24Zm64.85-.01h-10.42q-2.99 0-5.23-1.99-2.24-1.98-2.24-5.02v-36.9h-8.13V33.1h8.13V22.54l7.85-1.68V33.1h9.99v6.54h-9.99v34.8q0 1.54.44 2.05.44.52 1.89.52h7.71Zm17.9.01h-7.85V33.11h7.38V43.8l-.28-1.21q2.24-5.23 6.75-7.92t9.13-2.69q1.36 0 2.64.24 1.29.23 2.41.79l-1.03 7.38q-2.57-.79-5.09-.79-1.59 0-3.95.63t-4.67 2.52-3.88 5.63q-1.56 3.74-1.56 9.95Zm42.26 1.12q-5.05 0-8.76-1.94-3.72-1.94-5.73-5.3-2-3.37-2-7.62 0-4.53 2.66-8.36t8.24-6.14q5.59-2.31 14.32-2.31h8.41l-.84.84v-2.76q0-6.07-2.43-9.32t-8.13-3.25q-5.37 0-8.27 2.78-2.89 2.78-3.08 7.45l-8.83-2q.42-4.07 3.11-7.41 2.68-3.34 7.19-5.35t10.44-2.01q6.12 0 9.98 2.32 3.85 2.31 5.67 6.65 1.82 4.35 1.82 10.47v23.03q0 1.54.45 2.05.44.52 1.89.52h2.85v6.54h-5q-3.18 0-5.33-1.99-2.14-1.98-2.14-5.02V73h1.16q-.74 1.96-2.15 3.99-1.4 2.04-3.55 3.79-2.14 1.75-5.11 2.82-2.97 1.08-6.84 1.08m1.77-6.54q3.88 0 7.19-1.92 3.32-1.91 5.35-6 2.04-4.09 2.04-10.63v-.42h-7.9q-6.21 0-9.79 1.64-3.57 1.63-5.06 4.04-1.5 2.4-1.5 4.79 0 2.38 1.08 4.29 1.07 1.92 3.22 3.06 2.15 1.15 5.37 1.15m56.92 6.54q-7.1 0-12.29-3.23-5.19-3.22-7.99-9.13t-2.8-13.99 2.8-13.99 7.99-9.13q5.19-3.23 12.29-3.23 5.41 0 9.69 1.99 4.27 1.99 7.24 5.7t4.37 8.94l-7.99 2.11q-1.31-5.89-4.7-9.04-3.38-3.16-8.61-3.16-6.96 0-10.73 5.17-3.76 5.16-3.76 14.64 0 9.53 3.76 14.67 3.77 5.14 10.73 5.14 5.18 0 8.54-3.06 3.37-3.06 4.72-8.85l7.94 2.24q-1.12 3.83-3.08 6.82t-4.65 5.09q-2.68 2.1-6.07 3.2t-7.4 1.1m39.25-1.12h-7.85V13.49h7.85v42.18l23.69-22.56h10.69l-20.83 19.15 21.25 31.3h-9.29l-17.66-26.07-7.85 7.24Zm-457.45-60.827-47.294 22.41a1.66 1.66 0 0 0-.946 1.527 1.71 1.71 0 0 0 .97 1.494l18.26 8.3a1.7 1.7 0 0 0 .615.158l25.722.83q.415 0 .78-.183l34.014-16.6a1.66 1.66 0 0 0 .93-1.494c0-.614-.374-1.22-.93-1.494l-30.702-14.94c-.606-.266-.863-.166-1.42 0m-15.87 24.66a66 66 0 0 0 6.716 6.482l-12.915-.415a40.7 40.7 0 0 0 6.2-6.06m46.538 1.063-46.513 22.85-29.947-16.185a1.743 1.743 0 0 0-2.257.68c-.415.764-.083 1.843.672 2.258l30.702 16.6a1.7 1.7 0 0 0 1.527.025l47.293-23.24a1.71 1.71 0 0 0 .913-1.876c-.664-1.212-1.31-1.436-2.39-1.112m0 9.96-46.513 22.85-29.947-16.185a1.743 1.743 0 0 0-2.257.68c-.415.764-.083 1.843.672 2.258l30.702 16.6a1.7 1.7 0 0 0 1.527.025l47.293-23.24a1.71 1.71 0 0 0 .913-1.876 1.91 1.91 0 0 0-2.39-1.112"/></g><path fill="transparent" stroke="transparent" d="M469.5 0h561v108h-561z"/></g></svg>